<?xml version="1.0" standalone="no"?>
<!DOCTYPE svg PUBLIC "-//W3C//DTD SVG 20010904//EN"
 "http://www.w3.org/TR/2001/REC-SVG-20010904/DTD/svg10.dtd">
<svg version="1.0" xmlns="http://www.w3.org/2000/svg"
 width="533.000000pt" height="533.000000pt" viewBox="0 0 533.000000 533.000000"
 preserveAspectRatio="xMidYMid meet">
<metadata>
Created by potrace 1.11, written by Peter Selinger 2001-2013
</metadata>
<g transform="translate(0.000000,533.000000) scale(0.100000,-0.100000)"
fill="#000000" stroke="none">
<path d="M4560 4733 c-8 -3 -230 -222 -493 -487 -855 -862 -1041 -1046 -1053
-1046 -7 0 -14 4 -16 8 -5 14 -149 108 -223 145 -100 51 -142 69 -190 82 -16
4 -34 10 -40 14 -5 3 -14 7 -20 8 -5 1 -30 7 -55 13 -74 19 -81 20 -170 34
-84 13 -318 14 -395 2 -36 -6 -103 -18 -115 -21 -208 -50 -345 -109 -507 -217
-140 -94 -299 -251 -389 -383 -90 -134 -179 -323 -210 -447 -8 -35 -14 -64
-19 -93 -3 -16 -8 -37 -10 -45 -17 -60 -28 -413 -13 -435 3 -5 8 -30 10 -55 1
-25 6 -47 9 -50 4 -3 9 -21 12 -40 18 -118 116 -349 196 -465 19 -27 34 -55
34 -62 0 -7 4 -10 8 -7 4 2 13 -5 19 -16 6 -12 20 -30 31 -41 11 -11 17 -24
14 -30 -4 -5 -2 -8 3 -7 10 3 122 -110 122 -124 0 -5 4 -7 8 -4 5 3 15 -3 24
-12 20 -22 69 -60 193 -150 6 -4 17 -8 24 -10 7 -1 20 -9 28 -17 8 -8 21 -15
29 -15 8 0 17 -6 20 -14 3 -8 12 -12 20 -9 8 3 14 0 14 -7 0 -6 5 -8 10 -5 6
3 10 1 10 -4 0 -6 3 -10 8 -9 14 4 52 -13 52 -23 0 -6 4 -8 9 -5 13 8 42 -4
35 -15 -3 -5 3 -6 12 -2 11 4 22 -1 30 -12 10 -14 14 -15 14 -4 0 12 2 12 10
-1 6 -9 10 -11 10 -3 0 7 7 10 15 7 13 -5 13 -9 3 -22 -12 -13 -11 -14 8 -2
25 15 59 6 48 -12 -5 -8 0 -7 11 2 17 14 18 13 12 -5 -7 -19 -7 -20 8 -1 13
17 15 17 21 3 3 -10 10 -17 16 -17 5 0 6 5 3 10 -8 13 37 4 78 -15 15 -8 25
-9 22 -4 -4 5 3 9 15 9 12 0 18 -4 15 -10 -4 -7 2 -7 19 0 20 7 27 6 35 -8 6
-9 11 -12 11 -7 0 13 90 17 90 4 0 -6 -4 -8 -9 -4 -5 3 -12 1 -15 -4 -8 -13
24 -7 32 6 10 14 83 13 75 -1 -4 -6 3 -3 14 7 15 13 22 15 25 6 3 -9 9 -9 26
0 17 9 22 9 22 -1 0 -10 2 -10 9 1 5 8 18 12 30 8 12 -3 21 -2 21 2 0 4 8 7
18 7 9 0 29 3 44 7 21 5 28 3 31 -10 3 -13 5 -10 6 7 2 25 2 25 18 5 14 -18
15 -18 9 -1 -4 13 -2 17 8 13 7 -3 19 0 25 6 9 9 14 8 21 -3 8 -13 10 -12 10
3 0 11 5 17 13 14 6 -2 11 -10 9 -16 -1 -7 2 -10 7 -6 6 3 7 13 4 23 -3 9 -3
14 2 10 4 -4 21 0 37 8 17 9 32 13 35 10 3 -3 12 1 20 9 15 16 38 21 29 7 -3
-5 1 -9 8 -9 8 0 12 7 8 15 -3 10 -1 13 6 8 7 -4 12 -2 12 3 0 6 6 11 14 11 7
0 25 9 39 20 26 21 42 26 33 12 -3 -5 1 -9 8 -9 8 0 12 6 9 14 -4 9 0 11 13 6
10 -4 15 -2 11 3 -6 10 101 81 116 76 4 -1 7 2 7 8 0 5 12 17 26 26 22 15 27
15 35 3 7 -10 8 -7 7 11 -2 16 2 24 10 23 6 -2 12 5 12 15 0 14 2 15 10 2 8
-13 10 -13 10 1 0 9 8 23 18 32 20 19 37 23 27 7 -4 -6 1 -7 11 -3 11 4 13 8
6 11 -7 2 -12 8 -12 14 0 6 7 8 14 5 11 -4 13 -1 9 10 -5 13 -2 15 16 10 18
-4 20 -3 10 9 -10 13 -6 18 14 15 4 0 7 4 7 10 0 5 4 8 9 4 5 -3 13 0 17 6 4
8 3 9 -4 5 -21 -12 -13 10 11 32 28 26 47 49 47 57 0 8 27 35 35 35 3 0 3 -5
-1 -12 -4 -7 -3 -8 5 -4 8 6 9 12 2 20 -11 13 -5 26 11 26 5 0 6 -6 2 -12 -4
-7 -3 -9 1 -5 14 12 15 38 2 30 -7 -4 -6 1 2 10 11 14 17 15 30 5 13 -10 14
-10 5 1 -13 14 -7 51 7 51 5 0 9 7 9 16 0 9 5 12 12 8 8 -5 9 -2 5 10 -5 13
-3 17 6 13 8 -3 14 1 14 9 0 7 -3 11 -7 9 -4 -2 7 24 24 59 17 35 34 62 38 60
3 -2 4 6 0 18 -3 14 -1 19 6 14 7 -4 10 -2 7 7 -3 7 1 27 10 43 8 16 15 37 15
46 0 9 6 19 13 21 8 4 8 6 -2 6 -11 1 -10 5 5 17 10 8 12 12 4 8 -12 -6 -13
-5 -4 7 6 8 10 22 9 31 -2 11 3 18 13 18 11 0 13 3 6 8 -6 4 -9 16 -7 27 3 11
5 30 6 43 0 12 4 22 7 22 4 0 6 10 6 23 -1 14 4 21 14 19 10 -1 9 2 -4 13 -14
11 -16 15 -5 15 12 0 12 2 -1 10 -12 8 -12 10 5 10 11 0 15 3 10 8 -16 10 -17
62 -3 80 10 13 10 14 1 8 -7 -4 -13 -2 -13 3 0 6 5 11 10 11 6 0 10 5 10 11 0
5 -4 8 -8 5 -5 -3 -8 23 -7 57 1 34 -2 74 -6 89 -4 16 -3 30 2 34 6 4 6 11 -2
20 -6 8 -9 25 -7 39 3 14 2 25 -3 25 -4 0 -7 8 -7 18 0 9 -3 26 -7 36 -7 15
-5 17 6 11 9 -6 8 -2 -3 11 -19 22 -21 34 -6 52 8 9 7 11 -6 6 -12 -4 -16 0
-16 15 0 12 1 23 3 24 1 2 -4 11 -11 20 -8 9 -11 26 -7 39 4 15 3 18 -3 10 -6
-9 -12 -1 -21 27 -17 58 -98 216 -148 289 -24 35 -43 65 -43 68 0 3 -11 17
-24 31 -14 15 -22 31 -19 36 3 6 1 7 -5 3 -13 -8 -35 28 -24 39 4 5 1 5 -6 1
-7 -4 -15 -1 -18 9 -7 17 51 80 65 71 5 -3 8 2 7 12 0 10 6 17 15 16 9 -1 16
6 15 14 0 9 9 21 21 27 13 7 20 15 15 20 -4 4 1 5 10 2 11 -4 15 -2 12 6 -7
19 42 61 62 53 15 -6 15 -4 3 11 -12 15 -12 16 2 11 13 -5 16 -2 12 13 -3 11
0 19 6 19 7 0 10 -4 6 -9 -3 -5 -1 -12 4 -15 5 -4 8 2 7 11 -4 22 312 345 327
336 6 -4 8 1 4 11 -6 14 -3 17 8 12 9 -3 14 -2 10 3 -7 13 22 41 43 41 11 0
13 3 6 8 -7 4 -1 16 17 33 15 15 30 24 33 21 3 -3 6 -1 6 5 0 13 78 92 85 85
3 -3 5 0 5 7 0 7 4 9 10 6 6 -4 7 1 3 11 -4 12 -3 15 5 10 7 -4 12 -3 12 2 0
5 11 20 23 34 19 21 27 24 43 15 16 -9 17 -8 7 4 -9 11 -8 18 3 33 8 11 14 17
14 13 0 -4 10 1 22 12 11 11 25 18 30 15 4 -3 8 0 8 5 0 15 -13 14 -30 -1 -8
-7 8 10 35 39 26 28 52 51 56 50 4 -1 7 1 8 6 2 18 42 46 58 41 15 -5 16 -4 3
5 -13 9 -8 17 27 50 23 21 44 36 47 33 3 -3 6 2 6 11 0 16 12 22 33 18 5 -1 6
3 3 8 -8 12 201 224 213 217 5 -3 8 2 7 12 0 9 5 16 12 15 6 -2 11 3 10 10 -2
6 5 11 14 11 10 -1 15 2 12 8 -3 5 0 19 8 31 8 12 12 33 10 47 -1 14 -4 33 -5
42 -1 9 -5 14 -9 12 -4 -3 -8 -1 -8 5 0 25 -82 48 -120 34z"/>
<path d="M4330 4209 c0 -5 5 -7 10 -4 6 3 10 8 10 11 0 2 -4 4 -10 4 -5 0 -10
-5 -10 -11z"/>
<path d="M4306 4192 c-3 -5 1 -9 9 -9 8 0 12 4 9 9 -3 4 -7 8 -9 8 -2 0 -6 -4
-9 -8z"/>
<path d="M4210 4092 c0 -5 7 -9 15 -9 8 0 12 4 9 9 -3 4 -9 8 -15 8 -5 0 -9
-4 -9 -8z"/>
<path d="M4194 4072 c3 -5 0 -12 -6 -15 -7 -2 -10 -7 -7 -11 3 -4 12 0 18 8 9
11 9 16 0 22 -7 4 -9 3 -5 -4z"/>
<path d="M4130 3989 c0 -5 5 -7 10 -4 6 3 10 8 10 11 0 2 -4 4 -10 4 -5 0 -10
-5 -10 -11z"/>
<path d="M4035 3910 c-3 -5 -1 -10 4 -10 6 0 11 5 11 10 0 6 -2 10 -4 10 -3 0
-8 -4 -11 -10z"/>
<path d="M3915 3790 c-3 -5 -1 -10 4 -10 6 0 11 5 11 10 0 6 -2 10 -4 10 -3 0
-8 -4 -11 -10z"/>
<path d="M3873 3745 c-8 -22 5 -31 20 -15 10 10 9 11 -2 5 -11 -6 -13 -4 -8 8
3 10 4 17 1 17 -2 0 -7 -7 -11 -15z"/>
<path d="M3815 3690 c-3 -5 -1 -10 4 -10 6 0 11 5 11 10 0 6 -2 10 -4 10 -3 0
-8 -4 -11 -10z"/>
<path d="M3750 3620 c-9 -6 -10 -10 -3 -10 6 0 15 5 18 10 8 12 4 12 -15 0z"/>
<path d="M3700 3570 c-9 -6 -10 -10 -3 -10 6 0 15 5 18 10 8 12 4 12 -15 0z"/>
<path d="M3670 3540 c-9 -6 -10 -10 -3 -10 6 0 15 5 18 10 8 12 4 12 -15 0z"/>
<path d="M3620 3490 c-9 -6 -10 -10 -3 -10 6 0 15 5 18 10 8 12 4 12 -15 0z"/>
<path d="M3530 3389 c0 -5 5 -7 10 -4 6 3 10 8 10 11 0 2 -4 4 -10 4 -5 0 -10
-5 -10 -11z"/>
<path d="M3375 3250 c-3 -5 -1 -10 4 -10 6 0 11 5 11 10 0 6 -2 10 -4 10 -3 0
-8 -4 -11 -10z"/>
<path d="M3296 3172 c-3 -5 1 -9 9 -9 8 0 12 4 9 9 -3 4 -7 8 -9 8 -2 0 -6 -4
-9 -8z"/>
<path d="M3220 3070 c-9 -6 -10 -10 -3 -10 6 0 15 5 18 10 8 12 4 12 -15 0z"/>
<path d="M3450 2651 c0 -6 4 -13 10 -16 6 -3 7 1 4 9 -7 18 -14 21 -14 7z"/>
<path d="M3491 1534 c0 -11 3 -14 6 -6 3 7 2 16 -1 19 -3 4 -6 -2 -5 -13z"/>
<path d="M3375 1270 c3 -5 8 -10 11 -10 2 0 4 5 4 10 0 6 -5 10 -11 10 -5 0
-7 -4 -4 -10z"/>
<path d="M3075 951 c-3 -5 -2 -12 3 -15 5 -3 9 1 9 9 0 17 -3 19 -12 6z"/>
<path d="M2971 861 c-8 -5 -9 -11 -3 -15 5 -3 12 1 16 9 6 17 6 18 -13 6z"/>
<path d="M2866 791 c-4 -5 3 -7 14 -4 23 6 26 13 6 13 -8 0 -17 -4 -20 -9z"/>
<path d="M2736 712 c-3 -5 1 -9 9 -9 8 0 12 4 9 9 -3 4 -7 8 -9 8 -2 0 -6 -4
-9 -8z"/>
<path d="M2598 653 c7 -3 16 -2 19 1 4 3 -2 6 -13 5 -11 0 -14 -3 -6 -6z"/>
<path d="M2570 630 c0 -5 5 -10 11 -10 5 0 7 5 4 10 -3 6 -8 10 -11 10 -2 0
-4 -4 -4 -10z"/>
<path d="M1830 589 c0 -5 5 -7 10 -4 6 3 10 8 10 11 0 2 -4 4 -10 4 -5 0 -10
-5 -10 -11z"/>
</g>
</svg>
